<svg width="120" height="120" viewBox="0 0 120 120" fill="none" xmlns="http://www.w3.org/2000/svg">
<g clip-path="url(#clip0_2_24)">
<path d="M95.3425 1.64383H24.6576C11.9474 1.64383 1.64386 11.9474 1.64386 24.6575V95.3425C1.64386 108.053 11.9474 118.356 24.6576 118.356H95.3425C108.053 118.356 118.356 108.053 118.356 95.3425V24.6575C118.356 11.9474 108.053 1.64383 95.3425 1.64383Z" fill="white" fill-opacity="0.03" stroke="#0C6D87" stroke-width="2"/>
<path d="M116.494 60.6708C116.494 53.2157 107.158 46.1505 92.844 41.7692C96.1472 27.1801 94.6792 15.573 88.2104 11.857C86.7194 10.9853 84.976 10.5724 83.0721 10.5724V15.6877C84.1273 15.6877 84.976 15.8942 85.6871 16.2841C88.8068 18.0734 90.1602 24.8862 89.105 33.6488C88.8527 35.8051 88.4398 38.076 87.9351 40.3929C83.4391 39.2918 78.5302 38.4431 73.369 37.8925C70.2722 33.6488 67.0608 29.7951 63.8264 26.4231C71.3045 19.4726 78.3238 15.6648 83.095 15.6648V10.5494C76.7869 10.5494 68.5289 15.0455 60.1791 22.8447C51.8294 15.0913 43.5714 10.6412 37.2632 10.6412V15.7566C42.0116 15.7566 49.0538 19.5415 56.5319 26.4461C53.3204 29.8181 50.109 33.6488 47.0581 37.8925C41.874 38.4431 36.965 39.2918 32.469 40.4158C31.9414 38.1219 31.5515 35.8969 31.2762 33.7635C30.1981 25.0009 31.5285 18.1881 34.6253 16.3759C35.3134 15.963 36.2081 15.7795 37.2632 15.7795V10.6641C35.3364 10.6641 33.593 11.077 32.0791 11.9487C25.6333 15.6648 24.1881 27.2489 27.5142 41.7921C13.2463 46.1964 3.95605 53.2386 3.95605 60.6708C3.95605 68.1259 13.2922 75.1911 27.606 79.5724C24.3028 94.1615 25.7709 105.769 32.2396 109.485C33.7307 110.356 35.474 110.769 37.4009 110.769C43.7091 110.769 51.967 106.273 60.3168 98.474C68.6665 106.227 76.9245 110.677 83.2327 110.677C85.1595 110.677 86.9029 110.265 88.4169 109.393C94.8627 105.677 96.3078 94.0927 92.9817 79.5495C107.204 75.1681 116.494 68.103 116.494 60.6708ZM86.6276 45.3706C85.7789 48.3297 84.7237 51.3806 83.5309 54.4314C82.5904 52.5963 81.604 50.7612 80.5259 48.9261C79.4707 47.091 78.3467 45.3018 77.2227 43.5584C80.48 44.0401 83.6226 44.6366 86.6276 45.3706ZM76.1216 69.8005C74.3324 72.8972 72.4973 75.8334 70.5934 78.5631C67.1755 78.8613 63.7117 79.0219 60.225 79.0219C56.7613 79.0219 53.2975 78.8613 49.9025 78.586C47.9986 75.8563 46.1406 72.9431 44.3513 69.8693C42.608 66.8643 41.0252 63.8134 39.5801 60.7396C41.0023 57.6658 42.608 54.592 44.3284 51.587C46.1176 48.4903 47.9527 45.5541 49.8567 42.8244C53.2746 42.5262 56.7383 42.3656 60.225 42.3656C63.6888 42.3656 67.1525 42.5262 70.5475 42.8014C72.4514 45.5312 74.3095 48.4444 76.0987 51.5182C77.8421 54.5232 79.4248 57.5741 80.87 60.6479C79.4248 63.7217 77.842 66.7955 76.1216 69.8005ZM83.5309 66.8184C84.7696 69.8922 85.8248 72.966 86.6964 75.9481C83.6915 76.6821 80.5259 77.3015 77.2456 77.7832C78.3696 76.0169 79.4936 74.2047 80.5488 72.3467C81.604 70.5116 82.5904 68.6535 83.5309 66.8184ZM60.2709 91.2941C58.1376 89.092 56.0043 86.6376 53.8939 83.9537C55.9584 84.0455 58.0688 84.1143 60.2021 84.1143C62.3583 84.1143 64.4916 84.0684 66.5791 83.9537C64.5146 86.6376 62.3813 89.092 60.2709 91.2941ZM43.2044 77.7832C39.9471 77.3015 36.8045 76.705 33.7995 75.971C34.6482 73.0119 35.7034 69.961 36.8962 66.9102C37.8367 68.7453 38.8231 70.5804 39.9012 72.4155C40.9793 74.2506 42.0804 76.0398 43.2044 77.7832ZM60.1562 30.0475C62.2895 32.2496 64.4228 34.704 66.5332 37.3879C64.4687 37.2961 62.3583 37.2273 60.225 37.2273C58.0688 37.2273 55.9355 37.2732 53.848 37.3879C55.9125 34.704 58.0458 32.2496 60.1562 30.0475ZM43.1815 43.5584C42.0575 45.3247 40.9335 47.1369 39.8783 48.9949C38.8231 50.83 37.8367 52.6651 36.8962 54.5002C35.6575 51.4264 34.6023 48.3526 33.7307 45.3706C36.7357 44.6595 39.9012 44.0401 43.1815 43.5584ZM22.4218 72.2778C14.3015 68.8141 9.04848 64.2722 9.04848 60.6708C9.04848 57.0694 14.3015 52.5046 22.4218 49.0637C24.3946 48.215 26.5508 47.458 28.7759 46.7469C30.0834 51.2429 31.8038 55.9225 33.9371 60.7167C31.8267 65.488 30.1293 70.1445 28.8447 74.6176C26.5737 73.9065 24.4175 73.1266 22.4218 72.2778ZM34.7629 105.057C31.6432 103.268 30.2898 96.4554 31.345 87.6928C31.5974 85.5365 32.0103 83.2656 32.5149 80.9487C37.0109 82.0498 41.9198 82.8985 47.0811 83.4491C50.1778 87.6927 53.3892 91.5465 56.6236 94.9185C49.1456 101.869 42.1263 105.677 37.355 105.677C36.3228 105.654 35.4511 105.447 34.7629 105.057ZM89.1738 87.5781C90.252 96.3407 88.9215 103.154 85.8248 104.966C85.1366 105.379 84.242 105.562 83.1868 105.562C78.4385 105.562 71.3962 101.777 63.9182 94.8726C67.1296 91.5006 70.3411 87.6698 73.3919 83.4261C78.5761 82.8756 83.485 82.0269 87.981 80.9028C88.5086 83.2197 88.9215 85.4447 89.1738 87.5781ZM98.0053 72.2778C96.0326 73.1266 93.8763 73.8836 91.6512 74.5947C90.3437 70.0987 88.6233 65.4191 86.49 60.6249C88.6004 55.8536 90.2978 51.1971 91.5824 46.724C93.8534 47.4351 96.0096 48.215 98.0282 49.0637C106.149 52.5275 111.402 57.0694 111.402 60.6708C111.379 64.2722 106.126 68.837 98.0053 72.2778Z" fill="#61DAFB"/>
<path fill-rule="evenodd" clip-rule="evenodd" d="M69.3274 66.5066L70.7099 64.1714H77.3044L79.3406 60.6593L75.2681 53.6538H69.5329L67.5527 50.1791H65.3296V47.8253H68.9538L70.934 51.3187H73.9044L69.8132 44.3132H61.8362V53.6538H65.0681L66.4318 55.989H61.8362V60.6593H66.0582L68.0198 57.1659H73.2692L74.6143 59.5011H69.3835L67.422 62.9945H61.8362V71.1769H68.1879L66.8428 73.5121H61.8362V77.0055H69.8132L75.9406 66.5066H72.0362L70.6725 68.8418H65.3296V66.5066H69.3274Z" fill="#4285F4"/>
<path fill-rule="evenodd" clip-rule="evenodd" d="M51.9912 66.5066L50.6088 64.1714H44.0143L41.978 60.6593L46.0506 53.6538H51.7857L53.7659 50.1791H55.989V47.8253H52.3648L50.3846 51.3187H47.4143L51.5055 44.3132H59.5011V53.6538H56.2506L54.8868 55.989H59.5011V60.6593H55.2604L53.2989 57.1659H48.0495L46.7044 59.5011H51.9352L53.8967 62.9945H59.5011V71.1769H53.1308L54.4758 73.5121H59.5011V77.0055H51.5055L45.378 66.5066H49.2824L50.6462 68.8418H55.989V66.5066H51.9912Z" fill="#669DF6"/>
</g>
<defs>
<clipPath id="clip0_2_24">
<rect width="120" height="120" fill="white"/>
</clipPath>
</defs>
</svg>
